<svg height="512" viewBox="0 0 128 128" width="512" xmlns="http://www.w3.org/2000/svg"><g><rect fill="#f6cd61" height="64.041" rx="6.654" transform="matrix(0 1 -1 0 113.671 14.329)" width="115.387" x="-8.023" y="31.98"/><g fill="#3da4ab"><path d="m28.024 15.792h17.016v17.016h-17.016z"/><path d="m28.024 42.259h17.016v17.016h-17.016z"/><path d="m28.024 68.725h17.016v17.016h-17.016z"/><path d="m28.024 95.192h17.016v17.016h-17.016z"/><path d="m56.077 15.792h17.016v17.016h-17.016z"/><path d="m56.077 42.259h17.016v17.016h-17.016z"/><path d="m56.077 68.725h17.016v17.016h-17.016z"/><path d="m56.077 95.192h17.016v17.016h-17.016z"/></g><path d="m96.6 80.1v-68.723a5.071 5.071 0 0 1 5.071-5.071 5.071 5.071 0 0 1 5.07 5.071v68.723z" fill="#fe8a71"/><path d="m96.604 80.096h10.141v13.621h-10.141z" fill="#3da4ab"/><path d="m106.745 93.717s10.837 13.053-5.07 27.977c-15.907-14.924-5.075-27.977-5.075-27.977z" fill="#f6cd61"/><g fill="#2b1e0c"><path d="m75.037 4.557h-50.732a8.414 8.414 0 0 0 -8.4 8.4v63.496a1.75 1.75 0 0 0 3.5 0v-63.493a4.91 4.91 0 0 1 4.905-4.9h50.727a4.909 4.909 0 0 1 4.9 4.9v102.08a4.909 4.909 0 0 1 -4.9 4.9h-50.732a4.91 4.91 0 0 1 -4.905-4.9v-17.194a1.75 1.75 0 0 0 -3.5 0v17.194a8.414 8.414 0 0 0 8.4 8.4h50.737a8.413 8.413 0 0 0 8.4-8.4v-102.08a8.413 8.413 0 0 0 -8.4-8.403z"/><path d="m17.65 91.358a1.75 1.75 0 0 0 1.75-1.75v-4.5a1.75 1.75 0 0 0 -3.5 0v4.5a1.751 1.751 0 0 0 1.75 1.75z"/><path d="m28.023 34.559h17.017a1.75 1.75 0 0 0 1.75-1.75v-17.017a1.75 1.75 0 0 0 -1.75-1.75h-17.017a1.751 1.751 0 0 0 -1.75 1.75v17.017a1.751 1.751 0 0 0 1.75 1.75zm1.75-17.017h13.517v13.517h-13.517z"/><path d="m26.273 59.275a1.751 1.751 0 0 0 1.75 1.75h17.017a1.75 1.75 0 0 0 1.75-1.75v-17.017a1.75 1.75 0 0 0 -1.75-1.75h-17.017a1.751 1.751 0 0 0 -1.75 1.75zm3.5-15.267h13.517v13.517h-13.517z"/><path d="m26.273 85.742a1.751 1.751 0 0 0 1.75 1.75h17.017a1.75 1.75 0 0 0 1.75-1.75v-17.017a1.75 1.75 0 0 0 -1.75-1.75h-17.017a1.751 1.751 0 0 0 -1.75 1.75zm3.5-15.267h13.517v13.517h-13.517z"/><path d="m26.273 112.208a1.751 1.751 0 0 0 1.75 1.75h17.017a1.75 1.75 0 0 0 1.75-1.75v-17.017a1.75 1.75 0 0 0 -1.75-1.75h-17.017a1.751 1.751 0 0 0 -1.75 1.75zm3.5-15.267h13.517v13.517h-13.517z"/><path d="m56.076 34.559h17.017a1.75 1.75 0 0 0 1.75-1.75v-17.017a1.75 1.75 0 0 0 -1.75-1.75h-17.017a1.75 1.75 0 0 0 -1.75 1.75v17.017a1.75 1.75 0 0 0 1.75 1.75zm1.75-17.017h13.517v13.517h-13.517z"/><path d="m54.326 59.275a1.75 1.75 0 0 0 1.75 1.75h17.017a1.75 1.75 0 0 0 1.75-1.75v-17.017a1.75 1.75 0 0 0 -1.75-1.75h-17.017a1.75 1.75 0 0 0 -1.75 1.75zm3.5-15.267h13.517v13.517h-13.517z"/><path d="m54.326 85.742a1.75 1.75 0 0 0 1.75 1.75h17.017a1.75 1.75 0 0 0 1.75-1.75v-17.017a1.75 1.75 0 0 0 -1.75-1.75h-17.017a1.75 1.75 0 0 0 -1.75 1.75zm3.5-15.267h13.517v13.517h-13.517z"/><path d="m54.326 112.208a1.75 1.75 0 0 0 1.75 1.75h17.017a1.75 1.75 0 0 0 1.75-1.75v-17.017a1.75 1.75 0 0 0 -1.75-1.75h-17.017a1.75 1.75 0 0 0 -1.75 1.75zm3.5-15.267h13.517v13.517h-13.517z"/><path d="m108.5 93.15v-61.015a1.75 1.75 0 0 0 -3.5 0v46.211h-6.646v-66.969a3.321 3.321 0 0 1 6.641 0v13.081a1.75 1.75 0 0 0 3.5 0v-13.081a6.821 6.821 0 0 0 -13.641 0v81.773c-1.912 2.763-9.439 15.689 5.624 29.82a1.751 1.751 0 0 0 2.394 0c15.062-14.131 7.536-27.057 5.628-29.82zm-10.141-11.3h6.641v10.117h-6.646zm3.321 37.4c-11.175-11.45-5.912-21.233-4.19-23.783h8.377c1.741 2.543 7.044 12.278-4.192 23.778z"/></g></g></svg>