<svg height="512" viewBox="0 0 128 128" width="512" xmlns="http://www.w3.org/2000/svg"><g><path d="m55.786 19.144h16.427v18.716h-16.427z" fill="#3da4ab"/><g fill="#f6cd61"><path d="m114.417 121.694v-96.255a11.856 11.856 0 0 0 -11.856-11.856h-77.122a11.856 11.856 0 0 0 -11.856 11.856v96.255h-7.277v-96.542a18.846 18.846 0 0 1 18.846-18.846h77.7a18.846 18.846 0 0 1 18.846 18.846v96.542z"/><path d="m13.583 69.414h100.834v7.277h-100.834z"/><path d="m13.583 37.86h100.834v7.277h-100.834z"/><path d="m13.583 100.967h100.834v7.277h-100.834z"/></g><path d="m81.562 82.251h32.855v18.716h-32.855z" fill="#3da4ab"/><path d="m13.583 50.697h41.069v18.716h-41.069z" fill="#fe8a71"/><g fill="#2b1e0c"><path d="m6.307 98.871a1.751 1.751 0 0 0 1.75-1.75v-4.5a1.75 1.75 0 0 0 -3.5 0v4.5a1.75 1.75 0 0 0 1.75 1.75z"/><path d="m121.693 38.661a1.75 1.75 0 0 0 -1.75 1.75v79.532h-3.776v-94.5a13.621 13.621 0 0 0 -13.605-13.6h-77.124a13.621 13.621 0 0 0 -13.6 13.6v94.505h-3.781v-14.589a1.75 1.75 0 0 0 -3.5 0v16.334a1.749 1.749 0 0 0 1.75 1.75h7.276a1.75 1.75 0 0 0 1.75-1.75v-11.7h97.334v11.7a1.75 1.75 0 0 0 1.75 1.75h7.276a1.749 1.749 0 0 0 1.75-1.75v-81.282a1.749 1.749 0 0 0 -1.75-1.75zm-21.953 60.556v-15.217h4.713v15.217zm-8.214 0v-15.217h4.714v15.217zm-8.214 0v-15.217h4.714v15.217zm-67.979 0v-20.777h97.334v2.06h-31.105a1.751 1.751 0 0 0 -1.75 1.75v16.967zm0-59.607h97.334v3.777h-97.334zm55.131-18.716v15.216h-4.714v-15.216zm-8.214 15.216h-4.714v-15.216h4.714zm-46.917 35.054h97.334v3.776h-97.334zm12.927-18.717v15.217h-4.713v-15.217zm8.214 0v15.217h-4.714v-15.217zm8.214 0v15.217h-4.714v-15.217zm8.214 0v15.217h-4.714v-15.217zm-32.855 15.217h-4.714v-15.217h4.714zm92.62-20.777v20.777h-56.267v-16.964a1.751 1.751 0 0 0 -1.75-1.75h-39.317v-2.06zm-4.714 37.113h4.714v15.217h-4.714zm-82.515-68.667h77.124a10.116 10.116 0 0 1 10.105 10.1v10.677h-38.7v-16.966a1.751 1.751 0 0 0 -1.75-1.75h-16.431a1.751 1.751 0 0 0 -1.75 1.75v16.966h-38.7v-10.672a10.116 10.116 0 0 1 10.102-10.105zm-10.1 91.161v-3.777h97.334v3.777z"/><path d="m102.848 4.557h-77.7a20.617 20.617 0 0 0 -20.595 20.6v58.809a1.75 1.75 0 0 0 3.5 0v-58.814a17.115 17.115 0 0 1 17.1-17.095h77.7a17.115 17.115 0 0 1 17.1 17.1v7.581a1.75 1.75 0 0 0 3.5 0v-7.586a20.617 20.617 0 0 0 -20.605-20.595z"/></g></g></svg>