<svg height="512" viewBox="0 0 128 128" width="512" xmlns="http://www.w3.org/2000/svg"><g><path d="m48.594 98.2h30.813v14.737h-30.813z" fill="#3da4ab"/><path d="m76.055 112.938-2.802 8.756h-18.506l-2.802-8.756z" fill="#fe8a71"/><path d="m79.406 98.2v-5.36a21.135 21.135 0 0 1 6.572-15.107 31.515 31.515 0 1 0 -43.956 0 21.135 21.135 0 0 1 6.572 15.107v5.36z" fill="#f6cd61"/><g fill="#2b1e0c"><path d="m84.59 51.406a1.752 1.752 0 0 0 1.72 1.439 1.781 1.781 0 0 0 .314-.029 1.749 1.749 0 0 0 1.41-2.033 24.507 24.507 0 0 0 -7.785-13.864 1.75 1.75 0 0 0 -2.33 2.612 21 21 0 0 1 6.671 11.875z"/><path d="m72.581 36.064a1.75 1.75 0 0 0 1.437-3.191 24.316 24.316 0 0 0 -5.525-1.73 1.75 1.75 0 0 0 -.641 3.441 20.843 20.843 0 0 1 4.729 1.48z"/><path d="m64 18.591a1.751 1.751 0 0 0 1.75-1.75v-10.534a1.75 1.75 0 0 0 -3.5 0v10.534a1.751 1.751 0 0 0 1.75 1.75z"/><path d="m112.848 53.405h-10.534a1.75 1.75 0 0 0 0 3.5h10.534a1.75 1.75 0 0 0 0-3.5z"/><path d="m25.686 53.405h-10.534a1.75 1.75 0 0 0 0 3.5h10.534a1.75 1.75 0 1 0 0-3.5z"/><path d="m92.329 81.009a1.75 1.75 0 0 0 -2.475 2.475l7.45 7.449a1.75 1.75 0 1 0 2.474-2.475z"/><path d="m35.671 29.3a1.75 1.75 0 1 0 2.475-2.475l-7.446-7.449a1.75 1.75 0 0 0 -2.474 2.475z"/><path d="m35.671 81.009-7.449 7.449a1.75 1.75 0 1 0 2.478 2.475l7.45-7.449a1.75 1.75 0 1 0 -2.475-2.475z"/><path d="m97.3 19.376-7.45 7.449a1.75 1.75 0 1 0 2.479 2.475l7.449-7.449a1.75 1.75 0 0 0 -2.478-2.475z"/><path d="m37.361 35.229a33.319 33.319 0 0 0 -2.27 3.459 1.75 1.75 0 1 0 3.04 1.734 29.635 29.635 0 0 1 2.031-3.094 1.75 1.75 0 1 0 -2.8-2.1z"/><path d="m64 21.89a33.34 33.34 0 0 0 -20.978 7.447 1.75 1.75 0 0 0 2.209 2.715 29.766 29.766 0 0 1 48.534 23.1 29.519 29.519 0 0 1 -9.008 21.324 22.758 22.758 0 0 0 -7.1 16.361v3.61h-6.836v-25.447h3.345a6.844 6.844 0 1 0 -6.845-6.844v3.344h-6.642v-3.345a6.845 6.845 0 1 0 -6.845 6.845h3.345v25.45h-6.835v-3.61a22.755 22.755 0 0 0 -7.1-16.361 29.522 29.522 0 0 1 -9.007-21.324 29.822 29.822 0 0 1 1.107-8.074 1.75 1.75 0 1 0 -3.369-.948 33.306 33.306 0 0 0 8.825 32.854 19.285 19.285 0 0 1 6.044 13.853v20.1a1.75 1.75 0 0 0 1.75 1.75h2.074l2.413 7.539a1.747 1.747 0 0 0 1.666 1.216h18.506a1.748 1.748 0 0 0 1.666-1.216l2.413-7.539h2.074a1.75 1.75 0 0 0 1.75-1.75v-3.086a1.75 1.75 0 0 0 -3.5 0v1.336h-27.312v-11.24h27.312v2.225a1.75 1.75 0 1 0 3.5 0v-9.335a19.288 19.288 0 0 1 6.044-13.853 33.258 33.258 0 0 0 -23.2-57.097zm6.821 42.265a3.345 3.345 0 1 1 3.345 3.345h-3.345zm-16.987 3.345a3.344 3.344 0 1 1 3.345-3.344v3.344zm6.845 3.5h6.642v25.45h-6.642zm11.3 48.944h-15.955l-1.682-5.255h19.316z"/></g></g></svg>