<svg height="512" viewBox="0 0 128 128" width="512" xmlns="http://www.w3.org/2000/svg"><g><path d="m79.276 11.208h42.418v105.584h-42.418z" fill="#f6cd61"/><path d="m100.485 64v23.753a5 5 0 0 1 -5 5h-8.724v7.619h27.448v-36.372z" fill="#fe8a71"/><rect fill="#3da4ab" height="69.739" rx="4.997" width="94.178" x="6.306" y="23.011"/><path d="m13.426 30.131h79.939v48.337h-79.939z" fill="#faf5e4"/><path d="m43.103 92.749h20.584v16.923h-20.584z" fill="#3da4ab"/><path d="m39.193 109.672h28.407a5 5 0 0 1 5 5v2.12a0 0 0 0 1 0 0h-38.4a0 0 0 0 1 0 0v-2.12a5 5 0 0 1 4.993-5z" fill="#3da4ab"/><path d="m100.485 72.93a5.538 5.538 0 1 1 0 11.075z" fill="#f6cd61"/><g fill="#2b1e0c"><path d="m93.365 80.218a1.75 1.75 0 0 0 1.75-1.75v-48.337a1.75 1.75 0 0 0 -1.75-1.75h-79.939a1.75 1.75 0 0 0 -1.75 1.75v48.337a1.75 1.75 0 0 0 1.75 1.75zm-78.189-48.337h76.439v44.837h-76.439z"/><path d="m121.693 91.014a1.75 1.75 0 0 0 -1.75 1.75v4.5a1.75 1.75 0 0 0 3.5 0v-4.5a1.749 1.749 0 0 0 -1.75-1.75z"/><path d="m121.693 9.458h-42.417a1.75 1.75 0 0 0 -1.75 1.75v10.053h-66.226a6.754 6.754 0 0 0 -6.746 6.747v6.583a1.75 1.75 0 0 0 3.5 0v-6.583a3.25 3.25 0 0 1 3.246-3.247h84.188a3.251 3.251 0 0 1 3.247 3.247v59.745a3.25 3.25 0 0 1 -3.247 3.247h-84.188a3.249 3.249 0 0 1 -3.246-3.246v-45.486a1.75 1.75 0 0 0 -3.5 0v45.485a6.753 6.753 0 0 0 6.746 6.747h30.054v13.423h-2.161a6.758 6.758 0 0 0 -6.75 6.75v2.12a1.75 1.75 0 0 0 1.75 1.75h38.407a1.75 1.75 0 0 0 1.75-1.75v-2.12a6.758 6.758 0 0 0 -6.75-6.75h-2.163v-13.423h12.089v22.293a1.75 1.75 0 0 0 1.75 1.75h42.417a1.749 1.749 0 0 0 1.75-1.75v-11.293a1.75 1.75 0 0 0 -3.5 0v9.543h-38.917v-20.543h3.985v5.869a1.749 1.749 0 0 0 1.75 1.75h27.447a1.749 1.749 0 0 0 1.75-1.75v-36.369a1.749 1.749 0 0 0 -1.75-1.75h-11.973v-10.68h17.708v32.536a1.75 1.75 0 0 0 3.5 0v-72.9a1.749 1.749 0 0 0 -1.75-1.748zm-26.2 11.8h-14.467v-8.3h38.917v8.3h-7.216a1.75 1.75 0 0 0 -1.644 1.151l-4.183 11.482h-4.667v-5.883a6.754 6.754 0 0 0 -6.745-6.747zm6.747 53.867a3.755 3.755 0 0 1 0 6.678zm-31.392 39.547v.37h-34.9v-.37a3.254 3.254 0 0 1 3.25-3.25h28.402a3.254 3.254 0 0 1 3.248 3.25zm-8.911-6.75h-17.083v-13.422h17.083zm50.521-42.172v32.868h-23.947v-4.118h6.977a6.754 6.754 0 0 0 6.747-6.746v-2.22a7.278 7.278 0 0 0 0-14.133v-5.651zm-10.223-17.68v-10.679h5.892a1.75 1.75 0 0 0 1.645-1.152l4.18-11.478h5.991v23.309z"/><path d="m33.118 35.871h-11.635a1.75 1.75 0 1 0 0 3.5h11.635a1.75 1.75 0 0 0 0-3.5z"/><path d="m43.708 35.871h-3.875a1.75 1.75 0 0 0 0 3.5h3.875a1.75 1.75 0 0 0 0-3.5z"/></g></g></svg>