<svg height="512" viewBox="0 0 128 128" width="512" xmlns="http://www.w3.org/2000/svg"><g><circle cx="64" cy="64" fill="#fe8a71" r="13.468"/><g fill="#f6cd61"><circle cx="30.56" cy="27.784" r="4.823"/><circle cx="97.44" cy="100.216" r="4.823"/><circle cx="97.44" cy="27.784" r="4.823"/><circle cx="30.56" cy="100.216" r="4.823"/></g><g fill="#2b1e0c"><path d="m79.106 106.884a1.751 1.751 0 0 0 -2.329.837c-.5 1.06-1.024 2.073-1.558 3.012a1.75 1.75 0 1 0 3.041 1.732c.579-1.016 1.145-2.11 1.683-3.252a1.75 1.75 0 0 0 -.837-2.329z"/><path d="m114.232 32.215c-1.972-3.116-5.555-5.122-10.383-5.873a6.566 6.566 0 0 0 -12.9.426 73.465 73.465 0 0 0 -7.363 1.685c-4.38-14.589-11.457-23.896-19.586-23.896-4.915 0-9.591 3.365-13.522 9.733a1.75 1.75 0 1 0 2.978 1.839c2.273-3.683 5.944-8.072 10.544-8.072 5.965 0 12.181 7.937 16.243 21.4a119 119 0 0 0 -16.243 6.702 119.153 119.153 0 0 0 -16.218-6.694 69.27 69.27 0 0 1 2.637-7.4 1.75 1.75 0 1 0 -3.219-1.377 72.7 72.7 0 0 0 -2.77 7.771 73.445 73.445 0 0 0 -7.386-1.691 6.566 6.566 0 0 0 -12.895-.426c-4.828.752-8.411 2.757-10.384 5.874-4.652 7.356.364 19.398 11.935 31.784-11.571 12.386-16.587 24.428-11.933 31.785 1.973 3.117 5.556 5.122 10.384 5.873a6.566 6.566 0 0 0 12.9-.426 73.465 73.465 0 0 0 7.363-1.685c4.386 14.589 11.462 23.9 19.591 23.9 3.411 0 6.674-1.586 9.7-4.714a1.75 1.75 0 1 0 -2.515-2.433c-2.34 2.42-4.756 3.647-7.182 3.647-5.965 0-12.181-7.937-16.243-21.4a118.86 118.86 0 0 0 16.235-6.706 119.046 119.046 0 0 0 16.223 6.7c-.287.96-.583 1.907-.895 2.823a1.751 1.751 0 0 0 1.092 2.222 1.748 1.748 0 0 0 2.221-1.092c.326-.956.634-1.945.934-2.947a73.852 73.852 0 0 0 7.379 1.689 6.566 6.566 0 0 0 12.9.426c4.829-.752 8.412-2.757 10.383-5.874 4.655-7.356-.361-19.4-11.934-31.784 11.568-12.39 16.584-24.432 11.929-31.789zm-16.792-7.5a3.073 3.073 0 1 1 -3.073 3.074 3.077 3.077 0 0 1 3.073-3.078zm-6.089 5.535a6.567 6.567 0 0 0 12.328-.409c3.65.621 6.2 2.045 7.6 4.246 3.411 5.391-.706 15.878-11.408 27.4a122.772 122.772 0 0 0 -12.15-10.544 118.358 118.358 0 0 0 -3.191-19.118c2.351-.663 4.633-1.19 6.821-1.575zm-48.139 33.75c0-3.8.154-7.556.443-11.226 2.873-2.14 5.945-4.262 9.23-6.34 3.673-2.325 7.4-4.448 11.115-6.355 3.714 1.907 7.442 4.03 11.115 6.355 3.292 2.082 6.37 4.209 9.249 6.354.273 3.579.424 7.317.424 11.212 0 3.8-.153 7.554-.44 11.224-2.874 2.141-5.947 4.264-9.233 6.342-3.673 2.325-7.4 4.448-11.115 6.355-3.714-1.907-7.442-4.03-11.115-6.355-3.291-2.082-6.37-4.209-9.248-6.353-.273-3.579-.425-7.313-.425-11.213zm-3.265 8.362a114.561 114.561 0 0 1 -9.39-8.362 114.781 114.781 0 0 1 9.4-8.37c-.157 2.759-.244 5.554-.244 8.37-.001 2.846.087 5.634.234 8.362zm48.107-16.724a114.706 114.706 0 0 1 9.389 8.362 114.847 114.847 0 0 1 -9.394 8.366c.156-2.758.239-5.552.239-8.366 0-2.846-.083-5.633-.234-8.362zm-6.876-22.81a110.536 110.536 0 0 1 2.75 15.317q-3.337-2.379-6.942-4.669c-3.009-1.9-6.058-3.674-9.109-5.31a112.386 112.386 0 0 1 13.301-5.338zm-21.055 5.338c-3.052 1.637-6.1 3.406-9.109 5.31q-3.591 2.271-6.91 4.647a114.181 114.181 0 0 1 2.743-15.286 112.318 112.318 0 0 1 13.276 5.329zm-29.563-13.455a3.073 3.073 0 1 1 -3.073 3.074 3.077 3.077 0 0 1 3.073-3.074zm-13.835 9.376c1.393-2.2 3.945-3.625 7.6-4.246a6.567 6.567 0 0 0 12.328.409c2.2.386 4.484.915 6.847 1.579a121.2 121.2 0 0 0 -3.193 19.1 122.822 122.822 0 0 0 -12.17 10.559c-10.706-11.523-14.823-22.01-11.412-27.401zm13.835 69.2a3.073 3.073 0 1 1 3.073-3.074 3.077 3.077 0 0 1 -3.073 3.076zm6.089-5.539a6.567 6.567 0 0 0 -12.328.409c-3.651-.621-6.2-2.045-7.6-4.246-3.411-5.391.706-15.878 11.408-27.4a122.772 122.772 0 0 0 12.15 10.544 118.559 118.559 0 0 0 3.191 19.118c-2.351.665-4.633 1.192-6.821 1.577zm10.173-2.579a110.791 110.791 0 0 1 -2.75-15.316q3.339 2.379 6.942 4.669c3.009 1.9 6.057 3.673 9.108 5.31a112.464 112.464 0 0 1 -13.3 5.339zm21.055-5.337c3.052-1.636 6.1-3.406 9.109-5.31q3.6-2.274 6.918-4.652a113.716 113.716 0 0 1 -2.742 15.294 112.394 112.394 0 0 1 -13.285-5.33zm29.563 13.457a3.073 3.073 0 1 1 3.074-3.074 3.077 3.077 0 0 1 -3.074 3.074zm13.835-9.376c-1.393 2.2-3.945 3.625-7.6 4.246a6.567 6.567 0 0 0 -12.328-.409c-2.191-.385-4.476-.914-6.835-1.576a120.522 120.522 0 0 0 3.198-19.109 122.913 122.913 0 0 0 12.157-10.55c10.702 11.52 14.819 22.007 11.408 27.398z"/><path d="m64 79.218a15.218 15.218 0 1 0 -15.218-15.218 15.235 15.235 0 0 0 15.218 15.218zm0-26.936a11.718 11.718 0 1 1 -11.718 11.718 11.732 11.732 0 0 1 11.718-11.718z"/></g></g></svg>